<svg width="133" height="126" viewBox="0 0 133 126" fill="none" xmlns="http://www.w3.org/2000/svg">
<rect width="133" height="126" rx="10" fill="#E9D7FF"/>
<path fill-rule="evenodd" clip-rule="evenodd" d="M42.9218 60.6576L59.3668 68.6786C62.529 70.2224 62.0415 74.8731 58.6258 75.7246L40.8743 80.1511C38.661 80.7036 36.4738 79.1761 36.2138 76.9076C35.6667 72.1649 36.1727 67.3598 37.6958 62.8351C37.8677 62.3277 38.1457 61.8628 38.5114 61.4713C38.8771 61.0799 39.322 60.7708 39.8165 60.5648C40.3109 60.3587 40.8437 60.2604 41.3791 60.2764C41.9146 60.2925 42.4405 60.4224 42.9218 60.6576ZM49.5063 94.5096L61.7458 80.9149C64.0988 78.2986 68.4375 80.0536 68.3108 83.5701L67.6738 101.858C67.6549 102.395 67.5215 102.922 67.2825 103.403C67.0436 103.884 66.7047 104.309 66.2884 104.648C65.8721 104.988 65.388 105.235 64.8686 105.373C64.3492 105.51 63.8064 105.535 63.2765 105.446C58.5734 104.653 54.1001 102.843 50.1693 100.142C49.7268 99.8377 49.3545 99.4425 49.0771 98.9827C48.7998 98.523 48.6238 98.0093 48.561 97.476C48.4983 96.9428 48.5501 96.4023 48.7131 95.8907C48.8762 95.3791 49.1466 94.9082 49.5063 94.5096ZM78.5255 76.4201L95.9228 82.0751C98.0873 82.7771 99.1435 85.2276 98.1653 87.2816C96.1115 91.5866 93.1422 95.3911 89.465 98.4291C89.0507 98.7714 88.568 99.0212 88.0492 99.1618C87.5305 99.3023 86.9877 99.3305 86.4572 99.2444C85.9267 99.1582 85.4208 98.9597 84.9732 98.6622C84.5256 98.3646 84.1468 97.9749 83.862 97.5191L74.164 82.0004C72.2985 79.0169 75.178 75.3314 78.5255 76.4201ZM96.2185 65.3214L78.6328 70.3654C75.2495 71.3339 72.5 67.5509 74.4663 64.6324L84.7005 49.4646C84.9997 49.0205 85.39 48.6452 85.8456 48.3637C86.3011 48.0822 86.8113 47.901 87.3424 47.8322C87.8734 47.7633 88.413 47.8083 88.9253 47.9643C89.4376 48.1202 89.9107 48.3835 90.3133 48.7366C93.8948 51.8937 96.7357 55.8021 98.6333 60.1831C98.8481 60.6757 98.9554 61.2085 98.9478 61.7458C98.9403 62.2832 98.8181 62.8127 98.5896 63.2991C98.361 63.7855 98.0313 64.2175 97.6224 64.5662C97.2135 64.9149 96.7349 65.1724 96.2185 65.3214ZM55.1255 22.6489C51.96 23.4939 48.9408 24.6151 46.084 25.9769C45.6156 26.2017 45.1986 26.5209 44.8594 26.9146C44.5202 27.3082 44.266 27.7677 44.1128 28.2642C43.9596 28.7607 43.9107 29.2836 43.9691 29.7999C44.0276 30.3162 44.1922 30.8149 44.4525 31.2646L61.6418 61.0346C63.569 64.3756 68.6748 63.0074 68.6748 59.1496V24.7744C68.6754 24.2548 68.5686 23.7407 68.3611 23.2644C68.1536 22.7881 67.8499 22.3598 67.4691 22.0064C67.0882 21.653 66.6384 21.3822 66.1479 21.2109C65.6574 21.0395 65.1368 20.9714 64.6188 21.0109C61.4663 21.2611 58.291 21.8006 55.1255 22.6489Z" fill="#EF6836"/>
</svg>
