<svg width="133" height="126" viewBox="0 0 133 126" fill="none" xmlns="http://www.w3.org/2000/svg">
<rect width="133" height="126" rx="10" fill="#E9D7FF"/>
<path fill-rule="evenodd" clip-rule="evenodd" d="M40.6542 60.348L57.0992 68.369C60.2615 69.9128 59.774 74.5635 56.3582 75.415L38.6067 79.8415C36.3935 80.394 34.2062 78.8665 33.9462 76.598C33.3991 71.8553 33.9052 67.0503 35.4282 62.5255C35.6001 62.0182 35.8781 61.5532 36.2438 61.1618C36.6095 60.7703 37.0544 60.4612 37.5489 60.2552C38.0434 60.0492 38.5761 59.9509 39.1115 59.9669C39.647 59.9829 40.1729 60.1128 40.6542 60.348ZM47.2387 94.2L59.4782 80.6053C61.8312 77.989 66.17 79.744 66.0432 83.2605L65.4062 101.548C65.3873 102.085 65.2539 102.612 65.015 103.093C64.776 103.575 64.4371 103.999 64.0208 104.339C63.6045 104.679 63.1204 104.925 62.601 105.063C62.0816 105.2 61.5388 105.225 61.009 105.136C56.3058 104.344 51.8325 102.534 47.9017 99.8323C47.4593 99.5281 47.0869 99.1329 46.8095 98.6731C46.5322 98.2134 46.3562 97.6997 46.2935 97.1665C46.2307 96.6332 46.2826 96.0927 46.4456 95.5811C46.6086 95.0695 46.879 94.5987 47.2387 94.2ZM76.258 76.1105L93.6552 81.7655C95.8197 82.4675 96.876 84.918 95.8977 86.972C93.8439 91.277 90.8746 95.0815 87.1975 98.1195C86.7831 98.4618 86.3004 98.7116 85.7817 98.8522C85.2629 98.9928 84.7201 99.0209 84.1897 98.9348C83.6592 98.8486 83.1532 98.6501 82.7056 98.3526C82.2581 98.0551 81.8792 97.6653 81.5945 97.2095L71.8965 81.6908C70.031 78.7073 72.9105 75.0218 76.258 76.1105ZM93.951 65.0118L76.3652 70.0558C72.982 71.0243 70.2325 67.2413 72.1987 64.3228L82.433 49.155C82.7321 48.7109 83.1225 48.3356 83.578 48.0542C84.0335 47.7727 84.5438 47.5915 85.0748 47.5226C85.6058 47.4537 86.1455 47.4987 86.6577 47.6547C87.17 47.8107 87.6431 48.0739 88.0457 48.427C91.6272 51.5841 94.4681 55.4925 96.3657 59.8735C96.5806 60.3661 96.6878 60.8989 96.6802 61.4363C96.6727 61.9736 96.5506 62.5032 96.322 62.9895C96.0934 63.4759 95.7637 63.9079 95.3548 64.2566C94.9459 64.6054 94.4673 64.8628 93.951 65.0118ZM52.858 22.3393C49.6925 23.1843 46.6732 24.3055 43.8165 25.6673C43.348 25.8921 42.931 26.2114 42.5918 26.605C42.2526 26.9986 41.9984 27.4581 41.8452 27.9546C41.692 28.4512 41.6431 28.974 41.7016 29.4903C41.76 30.0067 41.9246 30.5053 42.185 30.955L59.3742 60.725C61.3015 64.066 66.4072 62.6978 66.4072 58.84V24.4648C66.4078 23.9452 66.301 23.4312 66.0935 22.9549C65.886 22.4785 65.5823 22.0502 65.2015 21.6969C64.8206 21.3435 64.3709 21.0726 63.8804 20.9013C63.3899 20.73 62.8693 20.6619 62.3512 20.7013C59.1987 20.9515 56.0235 21.491 52.858 22.3393Z" fill="black"/>
<path fill-rule="evenodd" clip-rule="evenodd" d="M53.1803 22.6489C50.0148 23.4939 46.9956 24.6151 44.1388 25.9769C43.6704 26.2017 43.2534 26.5209 42.9142 26.9146C42.575 27.3082 42.3208 27.7677 42.1676 28.2642C42.0144 28.7607 41.9655 29.2836 42.0239 29.7999C42.0824 30.3162 42.247 30.8149 42.5073 31.2646L59.6966 61.0346C61.6238 64.3756 66.7296 63.0074 66.7296 59.1496V24.7744C66.7302 24.2548 66.6234 23.7407 66.4159 23.2644C66.2084 22.7881 65.9047 22.3598 65.5239 22.0064C65.143 21.653 64.6932 21.3822 64.2027 21.2109C63.7123 21.0395 63.1916 20.9714 62.6736 21.0109C59.5211 21.2611 56.3458 21.8006 53.1803 22.6489Z" fill="#EF6836"/>
</svg>
