<svg width="133" height="126" viewBox="0 0 133 126" fill="none" xmlns="http://www.w3.org/2000/svg">
<rect width="133" height="126" rx="10" fill="#E9D7FF"/>
<path d="M67.0001 41.2493C63.6871 41.2493 60.4485 42.2317 57.6938 44.0723C54.9392 45.9129 52.7922 48.529 51.5244 51.5898C50.2565 54.6506 49.9248 58.0186 50.5711 61.268C51.2175 64.5173 52.8128 67.502 55.1555 69.8446C57.4981 72.1873 60.4828 73.7826 63.7321 74.429C66.9815 75.0753 70.3495 74.7436 73.4103 73.4758C76.4711 72.2079 79.0872 70.0609 80.9278 67.3063C82.7684 64.5516 83.7508 61.313 83.7508 58C83.7452 53.5592 81.9786 49.3019 78.8384 46.1617C75.6983 43.0215 71.4409 41.2549 67.0001 41.2493Z" fill="#D3F6D6"/>
<path d="M91.0499 42.7373C95.2651 42.7373 98.6821 39.3202 98.6821 35.1051C98.6821 30.8899 95.2651 27.4729 91.0499 27.4729C86.8348 27.4729 83.4177 30.8899 83.4177 35.1051C83.4177 39.3202 86.8348 42.7373 91.0499 42.7373Z" fill="#D3F6D6"/>
<path d="M100.446 42.775L100.126 42.0728L99.6156 42.6503C98.3655 44.0698 96.7842 45.1586 95.012 45.82L94.5198 46.0004L94.72 46.4811C96.2453 50.1296 97.0284 54.0455 97.0234 58C97.0234 74.5571 83.5539 88.0234 67 88.0234C50.4461 88.0234 36.9766 74.5571 36.9766 58C36.9766 41.4428 50.4428 27.9765 67 27.9765C71.4526 27.9672 75.8503 28.9597 79.8674 30.8804L80.3383 31.0937L80.5434 30.6146C81.2913 28.8779 82.4554 27.352 83.9329 26.1718L84.535 25.6911L83.8509 25.3515C78.647 22.6451 72.8656 21.2379 67 21.25C46.7366 21.25 30.25 37.7366 30.25 58C30.25 78.2633 46.7366 94.75 67 94.75C87.2634 94.75 103.75 78.2633 103.75 58C103.759 52.7461 102.631 47.5525 100.446 42.775Z" fill="#24211F"/>
</svg>
