<svg width="133" height="126" viewBox="0 0 133 126" fill="none" xmlns="http://www.w3.org/2000/svg">
<rect width="133" height="126" rx="10" fill="#E9D7FF"/>
<path fill-rule="evenodd" clip-rule="evenodd" d="M37.9218 66.6576L54.3668 74.6786C57.529 76.2224 57.0415 80.8731 53.6258 81.7246L35.8743 86.1511C33.661 86.7036 31.4738 85.1761 31.2138 82.9076C30.6667 78.1649 31.1727 73.3598 32.6958 68.8351C32.8677 68.3277 33.1457 67.8628 33.5114 67.4713C33.8771 67.0799 34.322 66.7708 34.8165 66.5648C35.3109 66.3587 35.8437 66.2604 36.3791 66.2764C36.9146 66.2925 37.4405 66.4224 37.9218 66.6576ZM44.5063 100.51L56.7458 86.9149C59.0988 84.2986 63.4375 86.0536 63.3108 89.5701L62.6738 107.858C62.6549 108.395 62.5215 108.922 62.2825 109.403C62.0436 109.884 61.7047 110.309 61.2884 110.648C60.8721 110.988 60.388 111.235 59.8686 111.373C59.3492 111.51 58.8064 111.535 58.2765 111.446C53.5734 110.653 49.1001 108.843 45.1693 106.142C44.7268 105.838 44.3545 105.442 44.0771 104.983C43.7998 104.523 43.6238 104.009 43.561 103.476C43.4983 102.943 43.5501 102.402 43.7131 101.891C43.8762 101.379 44.1466 100.908 44.5063 100.51ZM73.5255 82.4201L90.9228 88.0751C93.0873 88.7771 94.1435 91.2276 93.1653 93.2816C91.1115 97.5866 88.1422 101.391 84.465 104.429C84.0507 104.771 83.568 105.021 83.0492 105.162C82.5305 105.302 81.9877 105.331 81.4572 105.244C80.9267 105.158 80.4208 104.96 79.9732 104.662C79.5256 104.365 79.1468 103.975 78.862 103.519L69.164 88.0004C67.2985 85.0169 70.178 81.3314 73.5255 82.4201ZM91.2185 71.3214L73.6328 76.3654C70.2495 77.3339 67.5 73.5509 69.4663 70.6324L79.7005 55.4646C79.9997 55.0205 80.39 54.6452 80.8456 54.3637C81.3011 54.0822 81.8113 53.901 82.3424 53.8322C82.8734 53.7633 83.413 53.8083 83.9253 53.9643C84.4376 54.1202 84.9107 54.3835 85.3133 54.7366C88.8948 57.8937 91.7357 61.8021 93.6333 66.1831C93.8481 66.6757 93.9554 67.2085 93.9478 67.7458C93.9403 68.2832 93.8181 68.8127 93.5896 69.2991C93.361 69.7855 93.0313 70.2175 92.6224 70.5662C92.2135 70.9149 91.7349 71.1724 91.2185 71.3214ZM50.1255 28.6489C46.96 29.4939 43.9408 30.6151 41.084 31.9769C40.6156 32.2017 40.1986 32.5209 39.8594 32.9146C39.5202 33.3082 39.266 33.7677 39.1128 34.2642C38.9596 34.7607 38.9107 35.2836 38.9691 35.7999C39.0276 36.3162 39.1922 36.8149 39.4525 37.2646L56.6418 67.0346C58.569 70.3756 63.6748 69.0074 63.6748 65.1496V30.7744C63.6754 30.2548 63.5686 29.7407 63.3611 29.2644C63.1536 28.7881 62.8499 28.3598 62.4691 28.0064C62.0882 27.653 61.6384 27.3822 61.1479 27.2109C60.6574 27.0395 60.1368 26.9714 59.6188 27.0109C56.4663 27.2611 53.291 27.8006 50.1255 28.6489Z" fill="black"/>
</svg>
